{"title":"Suddenly.2013.720p.BRRip.x264-Fastbet99","uid":8864575,"size":1103569109,"categoryP":"video","categoryS":"hd___movies","magnet":"?xt=urn:btih:239a4f0da2826ef6146bbbce67280ca2df87c9fd&amp;dn=Suddenly.2013.720p.BRRip.x264-Fastbet99&amp;tr=udp%3A%2F%2Ftracker.openbittorrent.com%3A80&amp;tr=udp%3A%2F%2Fopen.demonii.com%3A1337&amp;tr=udp%3A%2F%2Ftracker.coppersurfer.tk%3A6969&amp;tr=udp%3A%2F%2Fexodus.desync.com%3A6969","seeders":0,"leechers":1,"uploader":"Fastbet99","files":-1,"time":1377870870,"description":"Suddenly (2013)\n\nIMDB Info\t\t\t\t : http://www.imdb.com/title/tt2569236/\n\nSource\t\t\t\t\t : PHD (Thanks)\nComplete name                            : Suddenly.2013.720p.BRRip.x264-Fastbet99.mp4\nFormat                                   : MPEG-4\nFormat profile                           : Base Media\nCodec ID                                 : isom\nFile size                                : 1.03 GiB\nDuration                                 : 1h 30mn\nOverall bit rate mode                    : Variable\nOverall bit rate                         : 1 632 Kbps\n\nVideo\nID                                       : 1\nFormat                                   : AVC\nFormat/Info                              : Advanced Video Codec\nFormat profile                           : &lt;a class=&quot;__cf_email__&quot; href=&quot;/cdn-cgi/l/email-protection&quot; data-cfemail=&quot;dc94b5bbb49c90e8f2ed&quot;&gt;[email&amp;#160;protected]&lt;/a&gt;&lt;script cf-hash='f9e31' type=&quot;text/javascript&quot;&gt;\n/* &lt;![CDATA[ */!function(){try{var t=&quot;currentScript&quot;in document?document.currentScript:function(){for(var t=document.getElementsByTagName(&quot;script&quot;),e=t.length;e--;)if(t[e].getAttribute(&quot;cf-hash&quot;))return t[e]}();if(t&amp;&amp;t.previousSibling){var e,r,n,i,c=t.previousSibling,a=c.getAttribute(&quot;data-cfemail&quot;);if(a){for(e=&quot;&quot;,r=parseInt(a.substr(0,2),16),n=2;a.length-n;n+=2)i=parseInt(a.substr(n,2),16)^r,e+=String.fromCharCode(i);e=document.createTextNode(e),c.parentNode.replaceChild(e,c)}}}catch(u){}}();/* ]]&gt; */&lt;/script&gt;\nFormat settings, CABAC                   : Yes\nFormat settings, ReFrames                : 4 frames\nCodec ID                                 : avc1\nCodec ID/Info                            : Advanced Video Coding\nDuration                                 : 1h 30mn\nBit rate                                 : 1 528 Kbps\nMaximum bit rate                         : 7 907 Kbps\nWidth                                    : 1 280 pixels\nHeight                                   : 720 pixels\nDisplay aspect ratio                     : 16:9\nFrame rate mode                          : Constant\nFrame rate                               : 23.976 fps\nColor space                              : YUV\nChroma subsampling                       : 4:2:0\nBit depth                                : 8 bits\nScan type                                : Progressive\nBits/(Pixel*Frame)                       : 0.069\nStream size                              : 986 MiB (94%)\nWriting library                          : x264 core 133 r2334 a3ac64b\n\n\nAudio\nID                                       : 2\nFormat                                   : AAC\nFormat/Info                              : Advanced Audio Codec\nFormat profile                           : LC\nCodec ID                                 : 40\nDuration                                 : 1h 30mn\nBit rate mode                            : Variable\nBit rate                                 : 96.0 Kbps\nMaximum bit rate                         : 116 Kbps\nChannel(s)                               : 2 channels\nChannel positions                        : Front: L R\nSampling rate                            : 48.0 KHz\nCompression mode                         : Lossy\nStream size                              : 61.9 MiB (6%)\nLanguage                                 : English\n\n\nText\nID                                       : 3\nFormat                                   : mp4s\nCodec ID                                 : E0\nDuration                                 : 1h 25mn\nBit rate mode                            : Variable\nBit rate                                 : 3 512 bps\nMaximum bit rate                         : 57.6 Kbps\nStream size                              : 2.14 MiB (0%)\nLanguage                                 : English\nEncoder\t\t\t\t\t : Fastbet99\n\nScreenshots\n &lt;a href=&quot;\nhttp://lookpic.com/O/i2/345/uAsswe7J.jpeg&quot; rel=&quot;nofollow&quot; target=&quot;_NEW&quot;&gt;\nhttp://lookpic.com/O/i2/345/uAsswe7J.jpeg&lt;/a&gt;\n\nStairway To heaven - Help People With Keep Seed As Long You Can","torrent":{"xt":"urn:btih:239a4f0da2826ef6146bbbce67280ca2df87c9fd","amp;dn":"Suddenly.2013.720p.BRRip.x264-Fastbet99","amp;tr":["udp%3A%2F%2Ftracker.openbittorrent.com%3A80","udp%3A%2F%2Fopen.demonii.com%3A1337","udp%3A%2F%2Ftracker.coppersurfer.tk%3A6969","udp%3A%2F%2Fexodus.desync.com%3A6969"],"infoHash":"239a4f0da2826ef6146bbbce67280ca2df87c9fd","infoHashBuffer":{"type":"Buffer","data":[35,154,79,13,162,130,110,246,20,107,187,206,103,40,12,162,223,135,201,253]},"announce":[],"urlList":[]}}